<?xml version="1.0" encoding="UTF-8" standalone="no"?>
<!DOCTYPE svg PUBLIC "-//W3C//DTD SVG 1.1//EN" "http://www.w3.org/Graphics/SVG/1.1/DTD/svg11.dtd">
<svg xmlns="http://www.w3.org/2000/svg" version="1.1" viewBox="0.00 0.00 72.00 72.00">
<g stroke-width="2.00" fill="none" stroke-linecap="butt">
<path stroke="#32160f" vector-effect="non-scaling-stroke" d="
  M 17.21 28.94
  Q 15.22 29.44 14.92 30.66
  Q 14.71 31.49 15.90 33.38
  Q 17.10 35.28 17.98 37.27"
/>
<path stroke="#733f25" vector-effect="non-scaling-stroke" d="
  M 17.98 37.27
  Q 17.92 38.78 20.04 39.54"
/>
<path stroke="#471e14" vector-effect="non-scaling-stroke" d="
  M 20.04 39.54
  Q 20.76 40.07 20.66 40.64
  A 2.49 2.31 17.2 0 0 22.11 43.16
  Q 23.76 43.91 25.45 44.70
  A 0.71 0.71 0.0 0 0 26.26 43.55
  L 22.16 39.47"
/>
<path stroke="#733f25" vector-effect="non-scaling-stroke" d="
  M 22.16 39.47
  Q 24.38 39.20 25.94 39.71"
/>
<path stroke="#32160f" vector-effect="non-scaling-stroke" d="
  M 25.94 39.71
  Q 25.82 40.95 26.55 41.91
  A 1.34 1.29 83.5 0 0 27.05 42.32
  Q 27.96 42.76 28.51 43.41"
/>
<path stroke="#84683b" vector-effect="non-scaling-stroke" d="
  M 28.51 43.41
  L 27.45 44.44
  A 1.46 1.46 0.0 0 0 27.73 46.74
  L 32.25 49.39"
/>
<path stroke="#32160f" vector-effect="non-scaling-stroke" d="
  M 32.25 49.39
  L 31.46 50.24"
/>
<path stroke="#471e14" vector-effect="non-scaling-stroke" d="
  M 31.46 50.24
  C 29.54 49.59 26.91 49.45 25.44 48.49
  Q 23.73 47.37 21.69 45.83
  A 1.37 1.36 -52.3 0 0 19.80 46.08
  Q 19.70 46.21 19.91 47.85"
/>
<path stroke="#32160f" vector-effect="non-scaling-stroke" d="
  M 19.91 47.85
  Q 18.24 53.66 19.72 56.21"
/>
<path stroke="#5f2c1c" vector-effect="non-scaling-stroke" d="
  M 19.72 56.21
  Q 18.72 56.71 18.04 57.58
  A 0.87 0.84 70.7 0 0 17.86 57.97
  L 16.91 62.96
  A 2.46 2.46 0.0 0 0 19.35 65.88
  L 27.67 65.81"
/>
<path stroke="#84683b" vector-effect="non-scaling-stroke" d="
  M 27.67 65.81
  Q 32.42 66.19 34.58 65.01"
/>
<path stroke="#471e14" vector-effect="non-scaling-stroke" d="
  M 34.58 65.01
  Q 37.34 66.26 40.21 65.82"
/>
<path stroke="#79492b" vector-effect="non-scaling-stroke" d="
  M 40.21 65.82
  L 41.70 65.66"
/>
<path stroke="#471e14" vector-effect="non-scaling-stroke" d="
  M 41.70 65.66
  L 50.76 65.82"
/>
<path stroke="#32160f" vector-effect="non-scaling-stroke" d="
  M 50.76 65.82
  Q 53.47 66.30 55.51 65.76
  A 2.06 2.06 0.0 0 0 57.03 63.55
  L 56.57 59.39"
/>
<path stroke="#471e14" vector-effect="non-scaling-stroke" d="
  M 56.57 59.39
  L 54.36 47.49"
/>
<path stroke="#733f25" vector-effect="non-scaling-stroke" d="
  M 54.36 47.49
  L 53.40 43.56"
/>
<path stroke="#471e14" vector-effect="non-scaling-stroke" d="
  M 53.40 43.56
  Q 52.94 42.13 53.17 40.58"
/>
<path stroke="#471e14" vector-effect="non-scaling-stroke" d="
  M 53.17 40.58
  L 58.56 33.33
  A 1.05 1.05 0.0 0 0 58.05 31.71
  Q 54.44 30.51 52.04 28.21"
/>
<path stroke="#79492b" vector-effect="non-scaling-stroke" d="
  M 52.04 28.21
  Q 49.30 23.80 51.36 23.08"
/>
<path stroke="#84683b" vector-effect="non-scaling-stroke" d="
  M 51.36 23.08
  Q 53.61 28.05 58.75 29.38
  A 0.51 0.50 14.2 0 0 59.37 29.02
  Q 60.08 26.20 59.39 23.38"
/>
<path stroke="#5f2c1c" vector-effect="non-scaling-stroke" d="
  M 59.39 23.38
  Q 59.35 22.81 59.15 22.48"
/>
<path stroke="#856e3f" vector-effect="non-scaling-stroke" d="
  M 59.15 22.48
  Q 59.37 22.01 59.24 21.52
  Q 57.07 13.35 49.50 8.50"
/>
<path stroke="#5f2c1c" vector-effect="non-scaling-stroke" d="
  M 49.50 8.50
  Q 37.33 2.48 25.21 8.75
  Q 19.90 11.50 16.57 17.45
  A 1.28 1.26 51.1 0 0 16.47 18.46
  C 16.67 19.14 17.06 19.71 17.14 20.49
  Q 17.66 25.03 17.21 28.94"
/>
<path stroke="#c9874b" vector-effect="non-scaling-stroke" d="
  M 49.50 8.50
  Q 47.01 8.93 44.88 7.65
  A 1.86 1.79 -27.6 0 0 44.03 7.40
  Q 37.49 7.12 34.50 7.24
  Q 32.53 7.33 29.00 9.36
  A 2.10 2.06 30.7 0 1 27.85 9.64
  C 24.91 9.51 23.56 11.44 20.89 13.84
  A 2.28 2.24 79.5 0 0 20.31 14.70
  Q 19.71 16.33 18.25 17.58
  A 0.46 0.46 0.0 0 0 18.45 18.37
  L 22.03 19.21"
/>
<path stroke="#8b3720" vector-effect="non-scaling-stroke" d="
  M 22.03 19.21
  Q 21.10 19.72 21.36 20.28"
/>
<path stroke="#762f1b" vector-effect="non-scaling-stroke" d="
  M 21.36 20.28
  C 21.16 26.19 20.90 29.48 26.05 32.81"
/>
<path stroke="#8b3720" vector-effect="non-scaling-stroke" d="
  M 26.05 32.81
  L 27.46 34.57"
/>
<path stroke="#be6237" vector-effect="non-scaling-stroke" d="
  M 27.46 34.57
  Q 26.82 34.41 26.24 34.48
  Q 25.60 34.56 25.63 34.97
  Q 25.65 35.31 26.04 35.79"
/>
<path stroke="#762f1b" vector-effect="non-scaling-stroke" d="
  M 26.04 35.79
  Q 21.69 36.78 18.15 33.96
  A 1.85 1.81 -81.7 0 1 17.58 33.18
  Q 16.62 30.71 17.21 28.94"
/>
<path stroke="#a04a29" vector-effect="non-scaling-stroke" d="
  M 29.71 31.31
  L 36.04 33.77"
/>
<path stroke="#5e2113" vector-effect="non-scaling-stroke" d="
  M 26.05 32.81
  Q 26.41 32.94 26.57 32.84
  A 0.76 0.76 0.0 0 0 26.62 31.59
  C 22.99 28.88 22.73 24.85 22.64 20.66
  A 0.58 0.58 0.0 0 0 22.06 20.09
  Q 21.66 20.10 21.36 20.28"
/>
<path stroke="#c9874b" vector-effect="non-scaling-stroke" d="
  M 59.15 22.48
  L 53.28 22.58"
/>
<path stroke="#eec26a" vector-effect="non-scaling-stroke" d="
  M 53.28 22.58
  Q 52.59 22.60 52.16 22.33
  A 0.76 0.75 -76.5 0 1 51.81 21.75
  L 51.35 16.75"
/>
<path stroke="#e4a45a" vector-effect="non-scaling-stroke" d="
  M 51.35 16.75
  L 50.84 12.50
  A 0.64 0.63 82.8 0 0 50.13 11.94
  Q 49.10 12.05 48.95 13.27
  Q 48.29 18.74 47.57 24.19
  A 2.56 2.44 66.8 0 1 47.20 25.18
  Q 45.26 28.11 42.42 30.02
  A 2.50 2.45 24.8 0 1 41.27 30.43
  L 36.96 30.84"
/>
<path stroke="#de9954" vector-effect="non-scaling-stroke" d="
  M 36.96 30.84
  L 29.71 31.31"
/>
<path stroke="#b17943" vector-effect="non-scaling-stroke" d="
  M 29.71 31.31
  Q 26.65 29.13 26.13 24.80
  A 2.29 2.02 49.6 0 1 26.14 24.25
  Q 26.89 19.44 22.03 19.21"
/>
<path stroke="#9b6a3a" vector-effect="non-scaling-stroke" d="
  M 33.00 37.83
  L 37.73 39.21
  A 0.65 0.65 0.0 0 1 37.75 40.45
  L 28.51 43.41"
/>
<path stroke="#8b4124" vector-effect="non-scaling-stroke" d="
  M 25.94 39.71
  L 31.57 40.71
  A 0.31 0.31 0.0 0 0 31.77 40.14
  Q 25.25 36.57 17.98 37.27"
/>
<path stroke="#e39e55" vector-effect="non-scaling-stroke" d="
  M 51.35 16.75
  L 51.36 23.08"
/>
<path stroke="#a6542f" vector-effect="non-scaling-stroke" d="
  M 52.04 28.21
  Q 47.10 34.57 38.50 35.12"
/>
<path stroke="#d27540" vector-effect="non-scaling-stroke" d="
  M 38.50 35.12
  Q 35.81 34.92 33.44 36.26
  A 0.34 0.33 74.4 0 0 33.27 36.57
  Q 33.30 37.23 34.42 36.89"
/>
<path stroke="#e39e55" vector-effect="non-scaling-stroke" d="
  M 34.42 36.89
  Q 32.89 37.37 33.00 37.83"
/>
<path stroke="#914c2a" vector-effect="non-scaling-stroke" d="
  M 33.00 37.83
  L 26.04 35.79"
/>
<path stroke="#a6542f" vector-effect="non-scaling-stroke" d="
  M 27.46 34.57
  Q 31.61 35.81 36.04 33.77"
/>
<path stroke="#d27540" vector-effect="non-scaling-stroke" d="
  M 36.04 33.77
  L 40.72 31.64
  A 0.39 0.39 0.0 0 0 40.57 30.90
  L 36.96 30.84"
/>
<path stroke="#c88147" vector-effect="non-scaling-stroke" d="
  M 53.28 22.58
  Q 53.06 22.98 53.06 23.24
  Q 53.07 23.53 53.53 23.67
  Q 56.58 24.65 59.39 23.38"
/>
<path stroke="#a04a29" vector-effect="non-scaling-stroke" d="
  M 22.16 39.47
  Q 21.71 39.16 20.04 39.54"
/>
<path stroke="#b0733f" vector-effect="non-scaling-stroke" d="
  M 43.47 49.39
  Q 45.33 50.67 46.24 52.45
  A 1.39 1.37 -49.6 0 1 46.32 53.53
  Q 45.53 55.82 43.93 56.94
  Q 38.01 61.13 34.58 65.01"
/>
<path stroke="#c88147" vector-effect="non-scaling-stroke" d="
  M 27.67 65.81
  L 19.37 65.86
  A 0.70 0.70 0.0 0 1 18.79 64.76
  Q 19.58 63.62 21.10 62.50"
/>
<path stroke="#e39e55" vector-effect="non-scaling-stroke" d="
  M 21.10 62.50
  Q 28.50 58.92 36.15 55.41
  Q 36.64 55.19 38.98 52.95
  A 0.15 0.14 -34.4 0 0 39.01 52.82
  L 38.78 51.96
  A 0.26 0.26 0.0 0 0 38.33 51.86
  Q 36.56 54.05 33.44 55.46
  Q 27.00 58.38 21.58 60.66
  A 0.71 0.71 0.0 0 1 20.60 60.10
  Q 20.52 59.46 21.28 58.43"
/>
<path stroke="#c88147" vector-effect="non-scaling-stroke" d="
  M 21.28 58.43
  L 22.33 57.97
  A 0.40 0.39 42.0 0 0 22.29 57.23
  Q 21.21 56.90 21.00 55.98"
/>
<path stroke="#9b6a3a" vector-effect="non-scaling-stroke" d="
  M 21.00 55.98
  Q 25.70 54.49 30.41 53.21
  Q 31.29 52.97 32.87 51.76
  Q 33.67 51.15 33.39 50.47
  Q 33.13 49.82 32.25 49.39"
/>
<path stroke="#a04a29" vector-effect="non-scaling-stroke" d="
  M 53.17 40.58
  Q 53.18 40.41 53.17 40.28
  A 0.46 0.45 84.5 0 0 52.67 39.86
  C 48.79 40.29 47.46 41.42 44.53 44.25
  A 0.97 0.95 17.7 0 1 44.03 44.50
  L 38.19 45.53
  A 0.38 0.38 0.0 0 1 37.75 45.23
  L 37.70 44.93
  A 0.49 0.49 0.0 0 1 38.15 44.35
  Q 42.39 44.03 44.46 40.85
  A 2.66 2.65 -80.7 0 1 46.01 39.73
  L 53.01 37.86
  A 0.49 0.49 0.0 0 0 53.35 37.26
  L 53.25 36.87
  A 0.11 0.11 0.0 0 0 53.12 36.79
  L 45.50 38.13
  A 0.06 0.05 -22.5 0 1 45.44 38.11
  L 45.17 37.56
  A 0.31 0.30 88.0 0 1 45.45 37.25
  Q 50.16 36.87 52.77 33.42
  A 0.52 0.51 89.7 0 0 52.05 32.70
  C 48.09 35.80 44.77 35.71 38.60 35.92
  Q 38.42 35.93 38.03 35.76
  A 0.22 0.22 0.0 0 1 38.07 35.35
  Q 38.35 35.28 38.50 35.12"
/>
<path stroke="#a04a29" vector-effect="non-scaling-stroke" d="
  M 53.17 40.58
  Q 49.36 42.15 46.40 45.15
  A 1.39 1.38 14.2 0 1 45.81 45.50
  L 43.53 46.10
  A 0.33 0.33 0.0 0 0 43.55 46.74
  Q 46.09 47.24 48.55 46.28
  Q 49.64 45.86 53.40 43.56"
/>
<path stroke="#a04a29" vector-effect="non-scaling-stroke" d="
  M 54.36 47.49
  Q 54.56 49.10 53.75 49.20
  Q 51.53 49.49 50.03 49.29
  A 0.39 0.39 0.0 0 0 49.70 49.95
  L 52.30 52.55
  A 0.80 0.79 -53.0 0 1 52.43 53.52
  L 50.94 56.10
  A 0.98 0.98 0.0 0 1 49.13 55.41
  Q 49.56 53.34 48.01 52.57
  A 1.28 1.26 -0.5 0 1 47.46 52.04
  Q 46.68 50.65 45.46 49.31
  A 1.87 1.51 53.5 0 0 43.45 48.79
  Q 43.12 48.96 43.47 49.39"
/>
<path stroke="#dd9350" vector-effect="non-scaling-stroke" d="
  M 43.47 49.39
  L 34.45 45.31
  A 0.83 0.83 0.0 0 1 34.45 43.80
  L 41.71 40.45
  A 0.80 0.80 0.0 0 0 41.60 38.96
  L 34.42 36.89"
/>
<path stroke="#762f1b" vector-effect="non-scaling-stroke" d="
  M 21.00 55.98
  L 19.72 56.21"
/>
<path stroke="#be6237" vector-effect="non-scaling-stroke" d="
  M 21.10 62.50
  Q 20.05 62.24 19.41 61.81
  A 0.85 0.84 19.4 0 1 19.03 61.02
  Q 19.23 59.13 21.28 58.43"
/>
<path stroke="#5e2113" vector-effect="non-scaling-stroke" d="
  M 56.57 59.39
  Q 53.14 62.08 50.76 65.82"
/>
<path stroke="#a6542f" vector-effect="non-scaling-stroke" d="
  M 41.70 65.66
  Q 41.76 65.17 42.26 64.77
  Q 48.36 59.79 55.43 56.98
  A 0.59 0.58 -19.1 0 0 55.78 56.27
  L 55.76 56.21
  A 0.53 0.52 -16.9 0 0 55.10 55.86
  C 48.83 57.90 43.21 59.93 38.90 65.12
  A 0.40 0.40 0.0 0 0 39.19 65.77
  L 40.21 65.82"
/>
<path stroke="#5e2113" vector-effect="non-scaling-stroke" d="
  M 31.46 50.24
  Q 31.94 50.43 32.04 50.70
  Q 32.14 50.99 31.69 51.24
  Q 29.70 52.32 27.60 51.45
  Q 25.85 50.73 19.91 47.85"
/>
<path stroke="#c9874b" vector-effect="non-scaling-stroke" d="
  M 33.82 14.28
  Q 33.35 15.42 32.23 15.52
  Q 31.83 15.56 22.28 15.45
  A 0.87 0.86 10.4 0 0 21.45 16.02
  L 21.44 16.04
  A 0.52 0.51 15.1 0 0 21.84 16.72
  C 24.32 17.14 33.87 18.30 34.94 15.17
  A 0.93 0.93 0.0 0 0 34.65 14.15
  L 34.58 14.09
  A 0.49 0.49 0.0 0 0 33.82 14.28"
/>
<path stroke="#c9874b" vector-effect="non-scaling-stroke" d="
  M 43.39 20.09
  L 43.05 20.67
  A 1.11 1.09 -74.7 0 1 42.10 21.22
  L 34.46 21.22
  A 0.34 0.34 0.0 0 0 34.12 21.56
  L 34.12 21.83
  A 0.69 0.68 2.8 0 0 34.74 22.51
  Q 38.77 22.90 41.90 22.74
  C 43.15 22.68 44.84 21.67 44.04 20.11
  A 0.37 0.37 0.0 0 0 43.39 20.09"
/>
</g>
<path fill="#1a1310" d="
  M 36.81 2.20
  C 49.57 2.22 61.32 10.96 62.85 23.97
  C 63.75 31.54 61.09 35.95 56.69 41.57
  A 1.14 1.14 0.0 0 0 56.47 42.49
  Q 59.64 58.40 60.60 63.49
  C 61.10 66.13 57.32 68.52 54.97 69.09
  A 3.72 2.49 20.4 0 1 54.51 69.16
  Q 54.11 69.20 36.70 69.17
  Q 19.29 69.14 18.89 69.11
  A 3.72 2.49 -20.2 0 1 18.43 69.03
  C 16.08 68.45 12.31 66.05 12.82 63.41
  Q 13.79 58.33 17.02 42.43
  A 1.14 1.14 0.0 0 0 16.80 41.51
  C 12.42 35.87 9.77 31.45 10.69 23.89
  C 12.27 10.89 24.05 2.18 36.81 2.20
  Z
  M 17.21 28.94
  Q 15.22 29.44 14.92 30.66
  Q 14.71 31.49 15.90 33.38
  Q 17.10 35.28 17.98 37.27
  Q 17.92 38.78 20.04 39.54
  Q 20.76 40.07 20.66 40.64
  A 2.49 2.31 17.2 0 0 22.11 43.16
  Q 23.76 43.91 25.45 44.70
  A 0.71 0.71 0.0 0 0 26.26 43.55
  L 22.16 39.47
  Q 24.38 39.20 25.94 39.71
  Q 25.82 40.95 26.55 41.91
  A 1.34 1.29 83.5 0 0 27.05 42.32
  Q 27.96 42.76 28.51 43.41
  L 27.45 44.44
  A 1.46 1.46 0.0 0 0 27.73 46.74
  L 32.25 49.39
  L 31.46 50.24
  C 29.54 49.59 26.91 49.45 25.44 48.49
  Q 23.73 47.37 21.69 45.83
  A 1.37 1.36 -52.3 0 0 19.80 46.08
  Q 19.70 46.21 19.91 47.85
  Q 18.24 53.66 19.72 56.21
  Q 18.72 56.71 18.04 57.58
  A 0.87 0.84 70.7 0 0 17.86 57.97
  L 16.91 62.96
  A 2.46 2.46 0.0 0 0 19.35 65.88
  L 27.67 65.81
  Q 32.42 66.19 34.58 65.01
  Q 37.34 66.26 40.21 65.82
  L 41.70 65.66
  L 50.76 65.82
  Q 53.47 66.30 55.51 65.76
  A 2.06 2.06 0.0 0 0 57.03 63.55
  L 56.57 59.39
  L 54.36 47.49
  L 53.40 43.56
  Q 52.94 42.13 53.17 40.58
  L 58.56 33.33
  A 1.05 1.05 0.0 0 0 58.05 31.71
  Q 54.44 30.51 52.04 28.21
  Q 49.30 23.80 51.36 23.08
  Q 53.61 28.05 58.75 29.38
  A 0.51 0.50 14.2 0 0 59.37 29.02
  Q 60.08 26.20 59.39 23.38
  Q 59.35 22.81 59.15 22.48
  Q 59.37 22.01 59.24 21.52
  Q 57.07 13.35 49.50 8.50
  Q 37.33 2.48 25.21 8.75
  Q 19.90 11.50 16.57 17.45
  A 1.28 1.26 51.1 0 0 16.47 18.46
  C 16.67 19.14 17.06 19.71 17.14 20.49
  Q 17.66 25.03 17.21 28.94
  Z"
/>
<path fill="#a34528" d="
  M 49.50 8.50
  Q 47.01 8.93 44.88 7.65
  A 1.86 1.79 -27.6 0 0 44.03 7.40
  Q 37.49 7.12 34.50 7.24
  Q 32.53 7.33 29.00 9.36
  A 2.10 2.06 30.7 0 1 27.85 9.64
  C 24.91 9.51 23.56 11.44 20.89 13.84
  A 2.28 2.24 79.5 0 0 20.31 14.70
  Q 19.71 16.33 18.25 17.58
  A 0.46 0.46 0.0 0 0 18.45 18.37
  L 22.03 19.21
  Q 21.10 19.72 21.36 20.28
  C 21.16 26.19 20.90 29.48 26.05 32.81
  L 27.46 34.57
  Q 26.82 34.41 26.24 34.48
  Q 25.60 34.56 25.63 34.97
  Q 25.65 35.31 26.04 35.79
  Q 21.69 36.78 18.15 33.96
  A 1.85 1.81 -81.7 0 1 17.58 33.18
  Q 16.62 30.71 17.21 28.94
  Q 17.66 25.03 17.14 20.49
  C 17.06 19.71 16.67 19.14 16.47 18.46
  A 1.28 1.26 51.1 0 1 16.57 17.45
  Q 19.90 11.50 25.21 8.75
  Q 37.33 2.48 49.50 8.50
  Z"
/>
<path fill="#efc86e" d="
  M 49.50 8.50
  Q 57.07 13.35 59.24 21.52
  Q 59.37 22.01 59.15 22.48
  L 53.28 22.58
  Q 52.59 22.60 52.16 22.33
  A 0.76 0.75 -76.5 0 1 51.81 21.75
  L 51.35 16.75
  L 50.84 12.50
  A 0.64 0.63 82.8 0 0 50.13 11.94
  Q 49.10 12.05 48.95 13.27
  Q 48.29 18.74 47.57 24.19
  A 2.56 2.44 66.8 0 1 47.20 25.18
  Q 45.26 28.11 42.42 30.02
  A 2.50 2.45 24.8 0 1 41.27 30.43
  L 36.96 30.84
  L 29.71 31.31
  Q 26.65 29.13 26.13 24.80
  A 2.29 2.02 49.6 0 1 26.14 24.25
  Q 26.89 19.44 22.03 19.21
  L 18.45 18.37
  A 0.46 0.46 0.0 0 1 18.25 17.58
  Q 19.71 16.33 20.31 14.70
  A 2.28 2.24 79.5 0 1 20.89 13.84
  C 23.56 11.44 24.91 9.51 27.85 9.64
  A 2.10 2.06 30.7 0 0 29.00 9.36
  Q 32.53 7.33 34.50 7.24
  Q 37.49 7.12 44.03 7.40
  A 1.86 1.79 -27.6 0 1 44.88 7.65
  Q 47.01 8.93 49.50 8.50
  Z
  M 33.82 14.28
  Q 33.35 15.42 32.23 15.52
  Q 31.83 15.56 22.28 15.45
  A 0.87 0.86 10.4 0 0 21.45 16.02
  L 21.44 16.04
  A 0.52 0.51 15.1 0 0 21.84 16.72
  C 24.32 17.14 33.87 18.30 34.94 15.17
  A 0.93 0.93 0.0 0 0 34.65 14.15
  L 34.58 14.09
  A 0.49 0.49 0.0 0 0 33.82 14.28
  Z
  M 43.39 20.09
  L 43.05 20.67
  A 1.11 1.09 -74.7 0 1 42.10 21.22
  L 34.46 21.22
  A 0.34 0.34 0.0 0 0 34.12 21.56
  L 34.12 21.83
  A 0.69 0.68 2.8 0 0 34.74 22.51
  Q 38.77 22.90 41.90 22.74
  C 43.15 22.68 44.84 21.67 44.04 20.11
  A 0.37 0.37 0.0 0 0 43.39 20.09
  Z"
/>
<path fill="#d87f45" d="
  M 51.35 16.75
  L 51.36 23.08
  Q 49.30 23.80 52.04 28.21
  Q 47.10 34.57 38.50 35.12
  Q 35.81 34.92 33.44 36.26
  A 0.34 0.33 74.4 0 0 33.27 36.57
  Q 33.30 37.23 34.42 36.89
  Q 32.89 37.37 33.00 37.83
  L 26.04 35.79
  Q 25.65 35.31 25.63 34.97
  Q 25.60 34.56 26.24 34.48
  Q 26.82 34.41 27.46 34.57
  Q 31.61 35.81 36.04 33.77
  L 40.72 31.64
  A 0.39 0.39 0.0 0 0 40.57 30.90
  L 36.96 30.84
  L 41.27 30.43
  A 2.50 2.45 24.8 0 0 42.42 30.02
  Q 45.26 28.11 47.20 25.18
  A 2.56 2.44 66.8 0 0 47.57 24.19
  Q 48.29 18.74 48.95 13.27
  Q 49.10 12.05 50.13 11.94
  A 0.64 0.63 82.8 0 1 50.84 12.50
  L 51.35 16.75
  Z"
/>
<path fill="#a34528" d="
  M 33.82 14.28
  A 0.49 0.49 0.0 0 1 34.58 14.09
  L 34.65 14.15
  A 0.93 0.93 0.0 0 1 34.94 15.17
  C 33.87 18.30 24.32 17.14 21.84 16.72
  A 0.52 0.51 15.1 0 1 21.44 16.04
  L 21.45 16.02
  A 0.87 0.86 10.4 0 1 22.28 15.45
  Q 31.83 15.56 32.23 15.52
  Q 33.35 15.42 33.82 14.28
  Z"
/>
<path fill="#edbc65" d="
  M 53.28 22.58
  Q 53.06 22.98 53.06 23.24
  Q 53.07 23.53 53.53 23.67
  Q 56.58 24.65 59.39 23.38
  Q 60.08 26.20 59.37 29.02
  A 0.51 0.50 14.2 0 1 58.75 29.38
  Q 53.61 28.05 51.36 23.08
  L 51.35 16.75
  L 51.81 21.75
  A 0.76 0.75 -76.5 0 0 52.16 22.33
  Q 52.59 22.60 53.28 22.58
  Z"
/>
<path fill="#732918" d="
  M 22.03 19.21
  Q 26.89 19.44 26.14 24.25
  A 2.29 2.02 49.6 0 0 26.13 24.80
  Q 26.65 29.13 29.71 31.31
  L 36.04 33.77
  Q 31.61 35.81 27.46 34.57
  L 26.05 32.81
  Q 26.41 32.94 26.57 32.84
  A 0.76 0.76 0.0 0 0 26.62 31.59
  C 22.99 28.88 22.73 24.85 22.64 20.66
  A 0.58 0.58 0.0 0 0 22.06 20.09
  Q 21.66 20.10 21.36 20.28
  Q 21.10 19.72 22.03 19.21
  Z"
/>
<path fill="#a34528" d="
  M 44.04 20.11
  C 44.84 21.67 43.15 22.68 41.90 22.74
  Q 38.77 22.90 34.74 22.51
  A 0.69 0.68 2.8 0 1 34.12 21.83
  L 34.12 21.56
  A 0.34 0.34 0.0 0 1 34.46 21.22
  L 42.10 21.22
  A 1.11 1.09 -74.7 0 0 43.05 20.67
  L 43.39 20.09
  A 0.37 0.37 0.0 0 1 44.04 20.11
  Z"
/>
<path fill="#49180e" d="
  M 26.05 32.81
  C 20.90 29.48 21.16 26.19 21.36 20.28
  Q 21.66 20.10 22.06 20.09
  A 0.58 0.58 0.0 0 1 22.64 20.66
  C 22.73 24.85 22.99 28.88 26.62 31.59
  A 0.76 0.76 0.0 0 1 26.57 32.84
  Q 26.41 32.94 26.05 32.81
  Z"
/>
<path fill="#a34528" d="
  M 59.15 22.48
  Q 59.35 22.81 59.39 23.38
  Q 56.58 24.65 53.53 23.67
  Q 53.07 23.53 53.06 23.24
  Q 53.06 22.98 53.28 22.58
  L 59.15 22.48
  Z"
/>
<path fill="#732918" d="
  M 53.17 40.58
  Q 53.18 40.41 53.17 40.28
  A 0.46 0.45 84.5 0 0 52.67 39.86
  C 48.79 40.29 47.46 41.42 44.53 44.25
  A 0.97 0.95 17.7 0 1 44.03 44.50
  L 38.19 45.53
  A 0.38 0.38 0.0 0 1 37.75 45.23
  L 37.70 44.93
  A 0.49 0.49 0.0 0 1 38.15 44.35
  Q 42.39 44.03 44.46 40.85
  A 2.66 2.65 -80.7 0 1 46.01 39.73
  L 53.01 37.86
  A 0.49 0.49 0.0 0 0 53.35 37.26
  L 53.25 36.87
  A 0.11 0.11 0.0 0 0 53.12 36.79
  L 45.50 38.13
  A 0.06 0.05 -22.5 0 1 45.44 38.11
  L 45.17 37.56
  A 0.31 0.30 88.0 0 1 45.45 37.25
  Q 50.16 36.87 52.77 33.42
  A 0.52 0.51 89.7 0 0 52.05 32.70
  C 48.09 35.80 44.77 35.71 38.60 35.92
  Q 38.42 35.93 38.03 35.76
  A 0.22 0.22 0.0 0 1 38.07 35.35
  Q 38.35 35.28 38.50 35.12
  Q 47.10 34.57 52.04 28.21
  Q 54.44 30.51 58.05 31.71
  A 1.05 1.05 0.0 0 1 58.56 33.33
  L 53.17 40.58
  Z"
/>
<path fill="#49180e" d="
  M 17.21 28.94
  Q 16.62 30.71 17.58 33.18
  A 1.85 1.81 -81.7 0 0 18.15 33.96
  Q 21.69 36.78 26.04 35.79
  L 33.00 37.83
  L 37.73 39.21
  A 0.65 0.65 0.0 0 1 37.75 40.45
  L 28.51 43.41
  Q 27.96 42.76 27.05 42.32
  A 1.34 1.29 83.5 0 1 26.55 41.91
  Q 25.82 40.95 25.94 39.71
  L 31.57 40.71
  A 0.31 0.31 0.0 0 0 31.77 40.14
  Q 25.25 36.57 17.98 37.27
  Q 17.10 35.28 15.90 33.38
  Q 14.71 31.49 14.92 30.66
  Q 15.22 29.44 17.21 28.94
  Z"
/>
<path fill="#cc6a3a" d="
  M 36.96 30.84
  L 40.57 30.90
  A 0.39 0.39 0.0 0 1 40.72 31.64
  L 36.04 33.77
  L 29.71 31.31
  L 36.96 30.84
  Z"
/>
<path fill="#cc6a3a" d="
  M 53.17 40.58
  Q 49.36 42.15 46.40 45.15
  A 1.39 1.38 14.2 0 1 45.81 45.50
  L 43.53 46.10
  A 0.33 0.33 0.0 0 0 43.55 46.74
  Q 46.09 47.24 48.55 46.28
  Q 49.64 45.86 53.40 43.56
  L 54.36 47.49
  Q 54.56 49.10 53.75 49.20
  Q 51.53 49.49 50.03 49.29
  A 0.39 0.39 0.0 0 0 49.70 49.95
  L 52.30 52.55
  A 0.80 0.79 -53.0 0 1 52.43 53.52
  L 50.94 56.10
  A 0.98 0.98 0.0 0 1 49.13 55.41
  Q 49.56 53.34 48.01 52.57
  A 1.28 1.26 -0.5 0 1 47.46 52.04
  Q 46.68 50.65 45.46 49.31
  A 1.87 1.51 53.5 0 0 43.45 48.79
  Q 43.12 48.96 43.47 49.39
  L 34.45 45.31
  A 0.83 0.83 0.0 0 1 34.45 43.80
  L 41.71 40.45
  A 0.80 0.80 0.0 0 0 41.60 38.96
  L 34.42 36.89
  Q 33.30 37.23 33.27 36.57
  A 0.34 0.33 74.4 0 1 33.44 36.26
  Q 35.81 34.92 38.50 35.12
  Q 38.35 35.28 38.07 35.35
  A 0.22 0.22 0.0 0 0 38.03 35.76
  Q 38.42 35.93 38.60 35.92
  C 44.77 35.71 48.09 35.80 52.05 32.70
  A 0.52 0.51 89.7 0 1 52.77 33.42
  Q 50.16 36.87 45.45 37.25
  A 0.31 0.30 88.0 0 0 45.17 37.56
  L 45.44 38.11
  A 0.06 0.05 -22.5 0 0 45.50 38.13
  L 53.12 36.79
  A 0.11 0.11 0.0 0 1 53.25 36.87
  L 53.35 37.26
  A 0.49 0.49 0.0 0 1 53.01 37.86
  L 46.01 39.73
  A 2.66 2.65 -80.7 0 0 44.46 40.85
  Q 42.39 44.03 38.15 44.35
  A 0.49 0.49 0.0 0 0 37.70 44.93
  L 37.75 45.23
  A 0.38 0.38 0.0 0 0 38.19 45.53
  L 44.03 44.50
  A 0.97 0.95 17.7 0 0 44.53 44.25
  C 47.46 41.42 48.79 40.29 52.67 39.86
  A 0.46 0.45 84.5 0 1 53.17 40.28
  Q 53.18 40.41 53.17 40.58
  Z"
/>
<path fill="#edbc65" d="
  M 43.47 49.39
  Q 45.33 50.67 46.24 52.45
  A 1.39 1.37 -49.6 0 1 46.32 53.53
  Q 45.53 55.82 43.93 56.94
  Q 38.01 61.13 34.58 65.01
  Q 32.42 66.19 27.67 65.81
  L 19.37 65.86
  A 0.70 0.70 0.0 0 1 18.79 64.76
  Q 19.58 63.62 21.10 62.50
  Q 28.50 58.92 36.15 55.41
  Q 36.64 55.19 38.98 52.95
  A 0.15 0.14 -34.4 0 0 39.01 52.82
  L 38.78 51.96
  A 0.26 0.26 0.0 0 0 38.33 51.86
  Q 36.56 54.05 33.44 55.46
  Q 27.00 58.38 21.58 60.66
  A 0.71 0.71 0.0 0 1 20.60 60.10
  Q 20.52 59.46 21.28 58.43
  L 22.33 57.97
  A 0.40 0.39 42.0 0 0 22.29 57.23
  Q 21.21 56.90 21.00 55.98
  Q 25.70 54.49 30.41 53.21
  Q 31.29 52.97 32.87 51.76
  Q 33.67 51.15 33.39 50.47
  Q 33.13 49.82 32.25 49.39
  L 27.73 46.74
  A 1.46 1.46 0.0 0 1 27.45 44.44
  L 28.51 43.41
  L 37.75 40.45
  A 0.65 0.65 0.0 0 0 37.73 39.21
  L 33.00 37.83
  Q 32.89 37.37 34.42 36.89
  L 41.60 38.96
  A 0.80 0.80 0.0 0 1 41.71 40.45
  L 34.45 43.80
  A 0.83 0.83 0.0 0 0 34.45 45.31
  L 43.47 49.39
  Z"
/>
<path fill="#cc6a3a" d="
  M 25.94 39.71
  Q 24.38 39.20 22.16 39.47
  Q 21.71 39.16 20.04 39.54
  Q 17.92 38.78 17.98 37.27
  Q 25.25 36.57 31.77 40.14
  A 0.31 0.31 0.0 0 1 31.57 40.71
  L 25.94 39.71
  Z"
/>
<path fill="#732918" d="
  M 22.16 39.47
  L 26.26 43.55
  A 0.71 0.71 0.0 0 1 25.45 44.70
  Q 23.76 43.91 22.11 43.16
  A 2.49 2.31 17.2 0 1 20.66 40.64
  Q 20.76 40.07 20.04 39.54
  Q 21.71 39.16 22.16 39.47
  Z"
/>
<path fill="#732918" d="
  M 53.17 40.58
  Q 52.94 42.13 53.40 43.56
  Q 49.64 45.86 48.55 46.28
  Q 46.09 47.24 43.55 46.74
  A 0.33 0.33 0.0 0 1 43.53 46.10
  L 45.81 45.50
  A 1.39 1.38 14.2 0 0 46.40 45.15
  Q 49.36 42.15 53.17 40.58
  Z"
/>
<path fill="#732918" d="
  M 31.46 50.24
  Q 31.94 50.43 32.04 50.70
  Q 32.14 50.99 31.69 51.24
  Q 29.70 52.32 27.60 51.45
  Q 25.85 50.73 19.91 47.85
  Q 19.70 46.21 19.80 46.08
  A 1.37 1.36 -52.3 0 1 21.69 45.83
  Q 23.73 47.37 25.44 48.49
  C 26.91 49.45 29.54 49.59 31.46 50.24
  Z"
/>
<path fill="#49180e" d="
  M 19.91 47.85
  Q 25.85 50.73 27.60 51.45
  Q 29.70 52.32 31.69 51.24
  Q 32.14 50.99 32.04 50.70
  Q 31.94 50.43 31.46 50.24
  L 32.25 49.39
  Q 33.13 49.82 33.39 50.47
  Q 33.67 51.15 32.87 51.76
  Q 31.29 52.97 30.41 53.21
  Q 25.70 54.49 21.00 55.98
  L 19.72 56.21
  Q 18.24 53.66 19.91 47.85
  Z"
/>
<path fill="#732918" d="
  M 56.57 59.39
  Q 53.14 62.08 50.76 65.82
  L 41.70 65.66
  Q 41.76 65.17 42.26 64.77
  Q 48.36 59.79 55.43 56.98
  A 0.59 0.58 -19.1 0 0 55.78 56.27
  L 55.76 56.21
  A 0.53 0.52 -16.9 0 0 55.10 55.86
  C 48.83 57.90 43.21 59.93 38.90 65.12
  A 0.40 0.40 0.0 0 0 39.19 65.77
  L 40.21 65.82
  Q 37.34 66.26 34.58 65.01
  Q 38.01 61.13 43.93 56.94
  Q 45.53 55.82 46.32 53.53
  A 1.39 1.37 -49.6 0 0 46.24 52.45
  Q 45.33 50.67 43.47 49.39
  Q 43.12 48.96 43.45 48.79
  A 1.87 1.51 53.5 0 1 45.46 49.31
  Q 46.68 50.65 47.46 52.04
  A 1.28 1.26 -0.5 0 0 48.01 52.57
  Q 49.56 53.34 49.13 55.41
  A 0.98 0.98 0.0 0 0 50.94 56.10
  L 52.43 53.52
  A 0.80 0.79 -53.0 0 0 52.30 52.55
  L 49.70 49.95
  A 0.39 0.39 0.0 0 1 50.03 49.29
  Q 51.53 49.49 53.75 49.20
  Q 54.56 49.10 54.36 47.49
  L 56.57 59.39
  Z"
/>
<path fill="#d87f45" d="
  M 21.10 62.50
  Q 20.05 62.24 19.41 61.81
  A 0.85 0.84 19.4 0 1 19.03 61.02
  Q 19.23 59.13 21.28 58.43
  Q 20.52 59.46 20.60 60.10
  A 0.71 0.71 0.0 0 0 21.58 60.66
  Q 27.00 58.38 33.44 55.46
  Q 36.56 54.05 38.33 51.86
  A 0.26 0.26 0.0 0 1 38.78 51.96
  L 39.01 52.82
  A 0.15 0.14 -34.4 0 1 38.98 52.95
  Q 36.64 55.19 36.15 55.41
  Q 28.50 58.92 21.10 62.50
  Z"
/>
<path fill="#d87f45" d="
  M 41.70 65.66
  L 40.21 65.82
  L 39.19 65.77
  A 0.40 0.40 0.0 0 1 38.90 65.12
  C 43.21 59.93 48.83 57.90 55.10 55.86
  A 0.53 0.52 -16.9 0 1 55.76 56.21
  L 55.78 56.27
  A 0.59 0.58 -19.1 0 1 55.43 56.98
  Q 48.36 59.79 42.26 64.77
  Q 41.76 65.17 41.70 65.66
  Z"
/>
<path fill="#a34528" d="
  M 21.00 55.98
  Q 21.21 56.90 22.29 57.23
  A 0.40 0.39 42.0 0 1 22.33 57.97
  L 21.28 58.43
  Q 19.23 59.13 19.03 61.02
  A 0.85 0.84 19.4 0 0 19.41 61.81
  Q 20.05 62.24 21.10 62.50
  Q 19.58 63.62 18.79 64.76
  A 0.70 0.70 0.0 0 0 19.37 65.86
  L 27.67 65.81
  L 19.35 65.88
  A 2.46 2.46 0.0 0 1 16.91 62.96
  L 17.86 57.97
  A 0.87 0.84 70.7 0 1 18.04 57.58
  Q 18.72 56.71 19.72 56.21
  L 21.00 55.98
  Z"
/>
<path fill="#49180e" d="
  M 56.57 59.39
  L 57.03 63.55
  A 2.06 2.06 0.0 0 1 55.51 65.76
  Q 53.47 66.30 50.76 65.82
  Q 53.14 62.08 56.57 59.39
  Z"
/>
</svg>
